<svg width="218" height="67" viewBox="0 0 218 67" fill="none" xmlns="http://www.w3.org/2000/svg">
<path d="M0.27002 64.196V20.1015H9.12612V39.6823L27.0178 20.1015H38.9257L22.4103 37.2761L39.8233 64.196H28.3642L16.3067 43.5022L9.12612 50.8714V64.196H0.27002Z" fill="#1E3A8A"/>
<path d="M54.5179 41.9983L46.8885 40.6147C47.7462 37.5267 49.2222 35.2408 51.3165 33.7569C53.4109 32.2731 56.5225 31.5312 60.6513 31.5312C64.4012 31.5312 67.1937 31.9823 69.0287 32.8847C70.8638 33.767 72.1503 34.8999 72.8883 36.2835C73.6462 37.647 74.0252 40.1636 74.0252 43.8331L73.9355 53.6987C73.9355 56.506 74.0651 58.5814 74.3244 59.9249C74.6037 61.2483 75.1123 62.672 75.8503 64.196H67.5327C67.3133 63.6345 67.0441 62.8024 66.7249 61.6995C66.5853 61.1982 66.4856 60.8673 66.4257 60.7069C64.9896 62.1106 63.4538 63.1633 61.8182 63.8651C60.1826 64.567 58.4373 64.9179 56.5823 64.9179C53.3111 64.9179 50.7281 64.0256 48.8332 62.2409C46.9583 60.4563 46.0208 58.2004 46.0208 55.4733C46.0208 53.6687 46.4497 52.0645 47.3073 50.6608C48.165 49.2371 49.3618 48.1543 50.8977 47.4124C52.4535 46.6504 54.6874 45.9887 57.5996 45.4272C61.529 44.6853 64.2516 43.9935 65.7675 43.3519V42.5097C65.7675 40.8855 65.3686 39.7325 64.5707 39.0507C63.7729 38.3489 62.267 37.998 60.0529 37.998C58.557 37.998 57.3901 38.2987 56.5524 38.9003C55.7146 39.4818 55.0365 40.5145 54.5179 41.9983ZM65.7675 48.8562C64.6904 49.2171 62.985 49.6482 60.6513 50.1495C58.3176 50.6508 56.7917 51.1421 56.0737 51.6233C54.9766 52.4054 54.4281 53.398 54.4281 54.6011C54.4281 55.7842 54.8669 56.8068 55.7446 57.669C56.6222 58.5313 57.7392 58.9624 59.0955 58.9624C60.6114 58.9624 62.0575 58.4611 63.4338 57.4585C64.4511 56.6965 65.1193 55.7641 65.4384 54.6612C65.6578 53.9394 65.7675 52.5658 65.7675 50.5405V48.8562Z" fill="#1E3A8A"/>
<path d="M141.22 66.396H95.2636C92.6518 66.396 90.147 65.353 88.3002 63.4964C86.4534 61.6397 85.4159 59.1216 85.4159 56.496V3.696C85.4159 2.82078 85.7618 1.98141 86.3774 1.36254C86.993 0.743673 87.8279 0.395996 88.6985 0.395996H134.654C135.525 0.395996 136.36 0.743673 136.976 1.36254C137.591 1.98141 137.937 2.82078 137.937 3.696V43.296H151.067V56.496C151.067 59.1216 150.03 61.6397 148.183 63.4964C146.336 65.353 143.831 66.396 141.22 66.396ZM137.937 49.896V56.496C137.937 57.3712 138.283 58.2106 138.898 58.8295C139.514 59.4483 140.349 59.796 141.22 59.796C142.09 59.796 142.925 59.4483 143.541 58.8295C144.156 58.2106 144.502 57.3712 144.502 56.496V49.896H137.937ZM131.372 59.796V6.996H91.981V56.496C91.981 57.3712 92.3269 58.2106 92.9425 58.8295C93.5581 59.4483 94.393 59.796 95.2636 59.796H131.372ZM98.5462 16.896H124.807V23.496H98.5462V16.896ZM98.5462 30.096H124.807V36.696H98.5462V30.096ZM98.5462 43.296H114.959V49.896H98.5462V43.296Z" fill="#1E3A8A"/>
<path d="M168.314 41.9983L160.684 40.6147C161.542 37.5267 163.018 35.2408 165.112 33.7569C167.207 32.2731 170.318 31.5312 174.447 31.5312C178.197 31.5312 180.989 31.9823 182.824 32.8847C184.659 33.767 185.946 34.8999 186.684 36.2835C187.442 37.647 187.821 40.1636 187.821 43.8331L187.731 53.6987C187.731 56.506 187.861 58.5814 188.12 59.9249C188.399 61.2483 188.908 62.672 189.646 64.196H181.328C181.109 63.6345 180.84 62.8024 180.521 61.6995C180.381 61.1982 180.281 60.8673 180.221 60.7069C178.785 62.1106 177.249 63.1633 175.614 63.8651C173.978 64.567 172.233 64.9179 170.378 64.9179C167.107 64.9179 164.524 64.0256 162.629 62.2409C160.754 60.4563 159.817 58.2004 159.817 55.4733C159.817 53.6687 160.245 52.0645 161.103 50.6608C161.961 49.2371 163.157 48.1543 164.693 47.4124C166.249 46.6504 168.483 45.9887 171.395 45.4272C175.325 44.6853 178.047 43.9935 179.563 43.3519V42.5097C179.563 40.8855 179.164 39.7325 178.366 39.0507C177.569 38.3489 176.063 37.998 173.849 37.998C172.353 37.998 171.186 38.2987 170.348 38.9003C169.51 39.4818 168.832 40.5145 168.314 41.9983ZM179.563 48.8562C178.486 49.2171 176.781 49.6482 174.447 50.1495C172.113 50.6508 170.587 51.1421 169.869 51.6233C168.772 52.4054 168.224 53.398 168.224 54.6011C168.224 55.7842 168.663 56.8068 169.54 57.669C170.418 58.5313 171.535 58.9624 172.891 58.9624C174.407 58.9624 175.853 58.4611 177.23 57.4585C178.247 56.6965 178.915 55.7641 179.234 54.6612C179.454 53.9394 179.563 52.5658 179.563 50.5405V48.8562Z" fill="#1E3A8A"/>
<path d="M205.093 64.196H196.686V32.253H204.494V36.7948C205.831 34.6492 207.028 33.2356 208.085 32.5538C209.162 31.872 210.379 31.5312 211.735 31.5312C213.65 31.5312 215.495 32.0625 217.27 33.1253L214.667 40.4944C213.251 39.572 211.934 39.1108 210.718 39.1108C209.541 39.1108 208.544 39.4417 207.726 40.1034C206.908 40.7451 206.26 41.9181 205.781 43.6226C205.322 45.327 205.093 48.8963 205.093 54.3304V64.196Z" fill="#1E3A8A"/>
</svg>
